 solid PRO2STL version 1.0
 facet normal 1 0 0
 outer loop 
 vertex 30.22 0.25 0.9725
 vertex 30.22 0.25 -0.9725
 vertex 30.22 0.9708939819 -0.9725
 endloop
 endfacet
 facet normal 1 0 -0
 outer loop 
 vertex 30.22 0.25 0.9725
 vertex 30.22 0.9708939819 -0.9725
 vertex 30.22 0.9708939819 0
 endloop
 endfacet
 facet normal 1 0 0
 outer loop 
 vertex 30.22 0.9708939819 0
 vertex 30.22 0.9708939819 0.9725
 vertex 30.22 0.25 0.9725
 endloop
 endfacet
endsolid PRO2STL version 1.0
